<svg width="1983" height="3421" viewBox="0 0 1983 3421" fill="none" xmlns="http://www.w3.org/2000/svg">
<g clip-path="url(#clip0_45_10)">
<path fill-rule="evenodd" clip-rule="evenodd" d="M360.701 0.825745C164.83 0.825745 6.04517 159.61 6.04517 355.481V870.391C13.7738 873.75 21.1584 878.272 27.9382 883.975L481.588 1265.56C584.737 1352.33 742.167 1301.36 770.113 1172.16L781.42 1119.89C838.889 854.206 1170.41 759.676 1369.57 952.183L1420.59 1001.51C1517.32 1094.99 1677.96 1055.44 1715.32 928.949L1875.43 386.983C1888.39 343.083 1934.07 317.965 1978.82 329.279C1965.42 145.643 1812.18 0.825745 1625.12 0.825745H360.701ZM1979.78 2016.49L1919.29 2224.66C1839.13 2500.56 1490.3 2588.04 1282.92 2384.25L1244.91 2346.91C1162.55 2265.97 1023.69 2306.17 999.937 2417.85L992.262 2453.89C932.362 2735.43 590.382 2847.59 369.029 2658.28L6.04517 2347.87V3065.41C6.04517 3261.28 164.83 3420.06 360.701 3420.06H1625.12C1820.99 3420.06 1979.78 3261.28 1979.78 3065.41V2016.49ZM1152.22 3116.32C1152.22 3206.73 1078.93 3280.01 988.534 3280.01C898.129 3280.01 824.843 3206.73 824.843 3116.32C824.843 3025.92 898.129 2952.64 988.534 2952.64C1078.93 2952.64 1152.22 3025.92 1152.22 3116.32ZM768.741 91.0822C740.844 91.0822 718.228 113.698 718.228 141.595C718.228 169.492 740.844 192.108 768.741 192.108H1187.59C1215.49 192.108 1238.09 169.492 1238.09 141.595C1238.09 113.698 1215.49 91.0822 1187.59 91.0822H768.741Z" fill="white"/>
<path d="M701.936 1851.01C701.936 1852.1 701.39 1852.64 700.299 1852.64C700.299 1852.64 700.299 1853.19 700.299 1854.28C700.299 1855.37 700.845 1855.92 701.936 1855.92H1014.58C1023.31 1855.92 1027.67 1851.01 1027.67 1841.19V1387.77C1027.67 1386.68 1027.13 1386.14 1026.04 1386.14H1024.4L701.936 1851.01ZM577.534 2035.97C553.526 2035.97 532.247 2027.24 513.696 2009.78C496.236 1992.32 487.506 1971.04 487.506 1945.95C487.506 1884.84 504.966 1830.27 539.886 1782.26L975.293 1161.89C1010.21 1111.69 1058.77 1086.59 1120.97 1086.59H1156.99C1182.08 1086.59 1203.91 1095.86 1222.46 1114.42C1241.01 1132.97 1250.29 1154.79 1250.29 1179.89V1841.19C1250.29 1851.01 1254.65 1855.92 1263.38 1855.92H1341.95C1367.05 1855.92 1388.33 1864.65 1405.79 1882.11C1423.25 1899.57 1431.98 1920.85 1431.98 1945.95C1431.98 1971.04 1423.25 1992.32 1405.79 2009.78C1388.33 2027.24 1367.05 2035.97 1341.95 2035.97H1263.38C1254.65 2035.97 1250.29 2040.88 1250.29 2050.71V2188.2C1250.29 2213.3 1241.01 2235.13 1222.46 2253.68C1203.91 2272.23 1182.08 2281.5 1156.99 2281.5H1120.97C1095.88 2281.5 1074.05 2272.23 1055.5 2253.68C1036.95 2235.13 1027.67 2213.3 1027.67 2188.2V2050.71C1027.67 2040.88 1023.31 2035.97 1014.58 2035.97H577.534Z" fill="white" fill-opacity="0.15"/>
<path d="M164.739 2040.39C164.739 2045.88 162.848 2050.51 159.065 2054.29C155.331 2058.03 150.723 2059.89 145.242 2059.89C139.859 2059.89 135.252 2057.95 131.42 2054.07C127.589 2057.95 122.981 2059.89 117.598 2059.89C112.118 2059.89 107.485 2058.03 103.702 2054.29C99.9684 2050.51 98.1006 2045.88 98.1006 2040.39V2020.97H107.922V2040.39C107.922 2043.06 108.868 2045.34 110.759 2047.23C112.651 2049.12 114.93 2050.07 117.598 2050.07C120.266 2050.07 122.521 2049.12 124.363 2047.23C126.255 2045.34 127.2 2043.06 127.2 2040.39L127.273 2020.97H137.094V2045.41H137.022C138.913 2048.51 141.654 2050.07 145.242 2050.07C147.911 2050.07 150.166 2049.12 152.008 2047.23C153.9 2045.34 154.845 2043.06 154.845 2040.39L154.918 2020.97H164.739V2040.39ZM208.706 2040.32C208.706 2045.75 206.814 2050.36 203.031 2054.14C199.297 2057.93 194.714 2059.82 189.282 2059.82C183.802 2059.82 179.169 2057.95 175.386 2054.22C171.652 2050.43 169.785 2045.8 169.785 2040.32C169.785 2034.89 171.676 2030.31 175.459 2026.57C179.242 2022.79 183.85 2020.9 189.282 2020.9C194.714 2020.9 199.297 2022.79 203.031 2026.57C206.814 2030.31 208.706 2034.89 208.706 2040.32ZM198.884 2040.32C198.884 2037.7 197.939 2035.45 196.047 2033.55C194.156 2031.66 191.9 2030.72 189.282 2030.72C186.614 2030.72 184.335 2031.66 182.443 2033.55C180.552 2035.4 179.606 2037.66 179.606 2040.32C179.606 2042.98 180.552 2045.27 182.443 2047.16C184.335 2049.05 186.614 2050 189.282 2050C191.95 2050 194.205 2049.05 196.047 2047.16C197.939 2045.27 198.884 2042.98 198.884 2040.32ZM233.33 2030.72C230.662 2030.72 228.383 2031.66 226.491 2033.55C224.6 2035.4 223.654 2037.66 223.654 2040.32V2058.73H213.833V2040.32C213.833 2034.89 215.724 2030.31 219.507 2026.57C223.29 2022.79 227.898 2020.9 233.33 2020.9V2030.72ZM273.703 2058.73H263.882L263.809 2053.85C263.76 2051.13 262.814 2048.86 260.972 2047.01C259.177 2045.17 256.922 2044.25 254.206 2044.25H248.022V2058.73H238.201V2001.11H248.022V2034.43H254.206C256.922 2034.43 259.177 2033.51 260.972 2031.66C262.814 2029.77 263.76 2027.47 263.809 2024.75L263.882 2020.97H273.703V2024.75C273.703 2030.57 271.521 2035.42 267.156 2039.3C271.521 2043.18 273.703 2048.03 273.703 2053.85V2058.73ZM308.233 2047.59C308.233 2049.92 307.457 2052.03 305.905 2053.92C302.801 2057.71 298.387 2059.53 292.664 2059.38C290.385 2059.34 287.887 2058.83 285.171 2057.85C282.504 2056.88 280.321 2055.67 278.624 2054.22L284.08 2047.16C286.699 2049.63 289.488 2050.87 292.446 2050.87H292.664C293.877 2050.87 294.968 2050.65 295.938 2050.21C297.199 2049.63 297.83 2048.8 297.83 2047.74V2047.45C297.684 2046.33 296.932 2045.53 295.574 2045.05C295.041 2044.95 293.901 2044.73 292.155 2044.39C289.973 2043.96 288.129 2043.42 286.626 2042.79C282.213 2040.9 280.006 2037.58 280.006 2032.83C280.006 2028.27 282.261 2024.85 286.772 2022.57C288.76 2021.55 290.918 2021.01 293.246 2020.97C295.672 2020.92 298.193 2021.33 300.812 2022.21C303.82 2023.22 305.953 2024.56 307.214 2026.21L300.667 2032.1C298.969 2030.4 297.127 2029.55 295.138 2029.55C292.034 2029.55 290.482 2030.57 290.482 2032.61V2032.75C290.482 2033.73 291.743 2034.55 294.265 2035.23C294.459 2035.27 296.059 2035.59 299.066 2036.17C305.177 2037.34 308.233 2041.07 308.233 2047.38V2047.59ZM352.289 2058.73H342.468L342.395 2040.32C342.395 2037.7 341.449 2035.45 339.558 2033.55C337.666 2031.66 335.411 2030.72 332.792 2030.72C330.125 2030.72 327.845 2031.66 325.954 2033.55C324.062 2035.4 323.117 2037.66 323.117 2040.32V2058.73H313.295V2001.11H323.117V2023.44C326.124 2021.74 329.348 2020.9 332.792 2020.9C338.224 2020.9 342.832 2022.79 346.615 2026.57C350.398 2030.31 352.289 2034.89 352.289 2040.32V2058.73ZM396.264 2040.32C396.264 2045.75 394.372 2050.36 390.589 2054.14C386.855 2057.93 382.272 2059.82 376.84 2059.82C371.36 2059.82 366.727 2057.95 362.944 2054.22C359.21 2050.43 357.343 2045.8 357.343 2040.32C357.343 2034.89 359.234 2030.31 363.017 2026.57C366.8 2022.79 371.408 2020.9 376.84 2020.9C382.272 2020.9 386.855 2022.79 390.589 2026.57C394.372 2030.31 396.264 2034.89 396.264 2040.32ZM386.442 2040.32C386.442 2037.7 385.497 2035.45 383.605 2033.55C381.714 2031.66 379.458 2030.72 376.84 2030.72C374.172 2030.72 371.892 2031.66 370.001 2033.55C368.11 2035.4 367.164 2037.66 367.164 2040.32C367.164 2042.98 368.11 2045.27 370.001 2047.16C371.892 2049.05 374.172 2050 376.84 2050C379.508 2050 381.763 2049.05 383.605 2047.16C385.497 2045.27 386.442 2042.98 386.442 2040.32ZM440.312 2040.39C440.312 2045.82 438.42 2050.43 434.637 2054.22C430.903 2057.95 426.319 2059.82 420.888 2059.82C417.396 2059.82 414.17 2058.97 411.212 2057.27V2079.6H401.391V2040.39C401.391 2034.91 403.258 2030.31 406.992 2026.57C410.775 2022.83 415.407 2020.97 420.888 2020.97C426.319 2020.97 430.903 2022.86 434.637 2026.64C438.42 2030.38 440.312 2034.96 440.312 2040.39ZM430.491 2040.39C430.491 2037.73 429.545 2035.47 427.653 2033.63C425.81 2031.74 423.555 2030.79 420.888 2030.79C418.22 2030.79 415.941 2031.74 414.049 2033.63C412.158 2035.47 411.212 2037.73 411.212 2040.39C411.212 2043.06 412.158 2045.34 414.049 2047.23C415.941 2049.08 418.22 2050 420.888 2050C423.555 2050 425.81 2049.08 427.653 2047.23C429.545 2045.34 430.491 2043.06 430.491 2040.39ZM516.116 2040.32C516.116 2045.75 514.225 2050.36 510.442 2054.14C506.708 2057.93 502.125 2059.82 496.692 2059.82C491.212 2059.82 486.58 2057.95 482.797 2054.22C479.063 2050.43 477.195 2045.8 477.195 2040.32C477.195 2034.89 479.087 2030.31 482.87 2026.57C486.653 2022.79 491.26 2020.9 496.692 2020.9C500.136 2020.9 503.337 2021.74 506.295 2023.44V2001.11H516.116V2040.32ZM506.295 2040.32C506.295 2037.7 505.349 2035.45 503.458 2033.55C501.566 2031.66 499.311 2030.72 496.692 2030.72C494.025 2030.72 491.745 2031.66 489.853 2033.55C487.962 2035.4 487.016 2037.66 487.016 2040.32C487.016 2042.98 487.962 2045.27 489.853 2047.16C491.745 2049.05 494.025 2050 496.692 2050C499.36 2050 501.615 2049.05 503.458 2047.16C505.349 2045.27 506.295 2042.98 506.295 2040.32ZM567.952 2058.73H557.549L555.439 2053.05C551.559 2057.61 546.612 2059.89 540.598 2059.89C535.166 2059.89 530.559 2058 526.776 2054.22C523.041 2050.43 521.174 2045.85 521.174 2040.47C521.174 2036.35 522.338 2032.64 524.666 2029.33C526.994 2025.99 530.098 2023.61 533.978 2022.21C536.257 2021.38 538.489 2020.97 540.671 2020.97C544.793 2020.97 548.503 2022.16 551.802 2024.53C555.148 2026.86 557.524 2029.96 558.931 2033.85L567.952 2058.73ZM550.274 2040.47C550.274 2037.07 548.892 2034.43 546.127 2032.54C544.527 2031.42 542.683 2030.86 540.598 2030.86C537.203 2030.86 534.584 2032.22 532.741 2034.94C531.577 2036.64 530.995 2038.47 530.995 2040.47C530.995 2043.81 532.378 2046.43 535.142 2048.32C536.839 2049.49 538.658 2050.07 540.598 2050.07C543.265 2050.07 545.545 2049.15 547.437 2047.3C549.328 2045.41 550.274 2043.13 550.274 2040.47ZM602.571 2047.59C602.571 2049.92 601.795 2052.03 600.243 2053.92C597.139 2057.71 592.725 2059.53 587.003 2059.38C584.723 2059.34 582.226 2058.83 579.509 2057.85C576.842 2056.88 574.66 2055.67 572.962 2054.22L578.418 2047.16C581.037 2049.63 583.826 2050.87 586.784 2050.87H587.003C588.215 2050.87 589.306 2050.65 590.276 2050.21C591.538 2049.63 592.168 2048.8 592.168 2047.74V2047.45C592.022 2046.33 591.27 2045.53 589.913 2045.05C589.379 2044.95 588.239 2044.73 586.493 2044.39C584.311 2043.96 582.468 2043.42 580.964 2042.79C576.551 2040.9 574.344 2037.58 574.344 2032.83C574.344 2028.27 576.599 2024.85 581.11 2022.57C583.099 2021.55 585.257 2021.01 587.585 2020.97C590.01 2020.92 592.532 2021.33 595.151 2022.21C598.158 2023.22 600.291 2024.56 601.553 2026.21L595.005 2032.1C593.307 2030.4 591.465 2029.55 589.476 2029.55C586.372 2029.55 584.82 2030.57 584.82 2032.61V2032.75C584.82 2033.73 586.081 2034.55 588.603 2035.23C588.797 2035.27 590.397 2035.59 593.405 2036.17C599.516 2037.34 602.571 2041.07 602.571 2047.38V2047.59ZM659.029 2058.73C653.598 2058.73 648.99 2056.86 645.207 2053.12C641.424 2049.34 639.532 2044.73 639.532 2039.3V2001.11H649.354V2020.97H659.029V2029.33H649.354V2039.3C649.354 2041.97 650.3 2044.25 652.191 2046.14C654.082 2047.99 656.362 2048.9 659.029 2048.9V2058.73ZM702.893 2040.32C702.893 2041.29 702.82 2042.26 702.675 2043.23H674.23C674.86 2045.27 676.024 2046.91 677.722 2048.18C679.419 2049.39 681.335 2050 683.469 2050C686.427 2050 688.877 2048.86 690.817 2046.58L696.782 2054.51C693.047 2058.04 688.61 2059.82 683.469 2059.82C677.988 2059.82 673.357 2057.95 669.574 2054.22C665.839 2050.43 663.972 2045.8 663.972 2040.32C663.972 2034.89 665.863 2030.31 669.646 2026.57C673.429 2022.79 678.037 2020.9 683.469 2020.9C688.901 2020.9 693.484 2022.79 697.219 2026.57C701.002 2030.31 702.893 2034.89 702.893 2040.32ZM691.908 2035.88C690.114 2032.44 687.3 2030.72 683.469 2030.72C679.589 2030.72 676.751 2032.44 674.957 2035.88H691.908ZM740.975 2054.36C737.192 2058 732.706 2059.82 727.516 2059.82C722.036 2059.82 717.404 2057.95 713.621 2054.22C709.887 2050.43 708.019 2045.8 708.019 2040.32C708.019 2034.89 709.911 2030.31 713.694 2026.57C717.477 2022.79 722.084 2020.9 727.516 2020.9C732.463 2020.9 736.78 2022.57 740.466 2025.92L734.573 2033.85C732.681 2031.76 730.33 2030.72 727.516 2030.72C724.849 2030.72 722.569 2031.66 720.678 2033.55C718.786 2035.4 717.84 2037.66 717.84 2040.32C717.84 2042.98 718.786 2045.27 720.678 2047.16C722.569 2049.05 724.849 2050 727.516 2050C730.426 2050 732.827 2048.88 734.718 2046.65L740.975 2054.36ZM784.809 2058.73H774.988L774.915 2040.32C774.915 2037.7 773.969 2035.45 772.078 2033.55C770.186 2031.66 767.931 2030.72 765.312 2030.72C762.645 2030.72 760.365 2031.66 758.474 2033.55C756.582 2035.4 755.637 2037.66 755.637 2040.32V2058.73H745.815V2040.32C745.815 2034.89 747.707 2030.31 751.49 2026.57C755.273 2022.79 759.881 2020.9 765.312 2020.9C770.744 2020.9 775.352 2022.79 779.135 2026.57C782.918 2030.31 784.809 2034.89 784.809 2040.32V2058.73ZM828.784 2040.32C828.784 2045.75 826.892 2050.36 823.109 2054.14C819.375 2057.93 814.792 2059.82 809.36 2059.82C803.88 2059.82 799.247 2057.95 795.464 2054.22C791.73 2050.43 789.863 2045.8 789.863 2040.32C789.863 2034.89 791.754 2030.31 795.537 2026.57C799.32 2022.79 803.928 2020.9 809.36 2020.9C814.792 2020.9 819.375 2022.79 823.109 2026.57C826.892 2030.31 828.784 2034.89 828.784 2040.32ZM818.962 2040.32C818.962 2037.7 818.017 2035.45 816.125 2033.55C814.234 2031.66 811.979 2030.72 809.36 2030.72C806.692 2030.72 804.413 2031.66 802.521 2033.55C800.63 2035.4 799.684 2037.66 799.684 2040.32C799.684 2042.98 800.63 2045.27 802.521 2047.16C804.413 2049.05 806.692 2050 809.36 2050C812.028 2050 814.283 2049.05 816.125 2047.16C818.017 2045.27 818.962 2042.98 818.962 2040.32ZM843.732 2058.73H833.911V2001.11H843.732V2058.73ZM887.68 2040.32C887.68 2045.75 885.789 2050.36 882.006 2054.14C878.271 2057.93 873.688 2059.82 868.256 2059.82C862.775 2059.82 858.144 2057.95 854.361 2054.22C850.626 2050.43 848.759 2045.8 848.759 2040.32C848.759 2034.89 850.65 2030.31 854.433 2026.57C858.216 2022.79 862.824 2020.9 868.256 2020.9C873.688 2020.9 878.271 2022.79 882.006 2026.57C885.789 2030.31 887.68 2034.89 887.68 2040.32ZM877.859 2040.32C877.859 2037.7 876.913 2035.45 875.022 2033.55C873.13 2031.66 870.875 2030.72 868.256 2030.72C865.589 2030.72 863.309 2031.66 861.418 2033.55C859.526 2035.4 858.58 2037.66 858.58 2040.32C858.58 2042.98 859.526 2045.27 861.418 2047.16C863.309 2049.05 865.589 2050 868.256 2050C870.923 2050 873.178 2049.05 875.022 2047.16C876.913 2045.27 877.859 2042.98 877.859 2040.32ZM931.797 2068.4C931.797 2075.39 928.941 2080.77 923.212 2084.55C919.92 2086.73 916.301 2087.83 912.372 2087.83C905.489 2087.83 900.106 2084.94 896.226 2079.17C893.995 2075.82 892.88 2072.23 892.88 2068.4C892.88 2065.88 893.365 2063.45 894.335 2061.13L903.429 2064.76C902.943 2065.93 902.701 2067.14 902.701 2068.4C902.701 2071.07 903.647 2073.32 905.538 2075.17C907.43 2077.06 909.708 2078 912.372 2078C914.991 2078 917.246 2077.06 919.138 2075.17C921.029 2073.28 921.975 2071.02 921.975 2068.4C921.975 2064.14 919.966 2061.15 915.937 2059.45C914.728 2059.7 913.518 2059.82 912.3 2059.82C906.823 2059.82 902.192 2057.95 898.409 2054.22C894.674 2050.43 892.807 2045.8 892.807 2040.32C892.807 2034.89 894.699 2030.31 898.482 2026.57C902.265 2022.79 906.871 2020.9 912.3 2020.9L917.974 2007.44L925.685 2010.71L920.593 2022.79C923.994 2024.43 926.686 2026.83 928.668 2029.99C930.705 2033.15 931.724 2036.58 931.724 2040.32C931.724 2045.85 929.741 2050.51 925.758 2054.29C929.787 2058.12 931.797 2062.83 931.797 2068.4ZM921.902 2040.32C921.902 2037.7 920.957 2035.45 919.065 2033.55C917.174 2031.66 914.919 2030.72 912.3 2030.72C909.635 2030.72 907.357 2031.66 905.466 2033.55C903.574 2035.4 902.628 2037.66 902.628 2040.32C902.628 2042.98 903.574 2045.27 905.466 2047.16C907.357 2049.05 909.635 2050 912.3 2050C914.973 2050 917.228 2049.05 919.065 2047.16C920.957 2045.27 921.902 2042.98 921.902 2040.32ZM947.547 2012.6C947.547 2014.25 946.992 2015.66 945.874 2016.82C944.764 2017.94 943.382 2018.5 941.727 2018.5C940.081 2018.5 938.671 2017.94 937.507 2016.82C936.398 2015.66 935.834 2014.25 935.834 2012.6C935.834 2010.96 936.398 2009.57 937.507 2008.46C938.671 2007.34 940.081 2006.78 941.727 2006.78C943.327 2006.78 944.691 2007.36 945.801 2008.53C946.965 2009.65 947.547 2011 947.547 2012.6ZM946.674 2058.73H936.853V2020.97H946.674V2058.73ZM998.553 2058.73H988.15L986.041 2053.05C982.158 2057.61 977.211 2059.89 971.2 2059.89C965.771 2059.89 961.16 2058 957.377 2054.22C953.64 2050.43 951.775 2045.85 951.775 2040.47C951.775 2036.35 952.939 2032.64 955.267 2029.33C957.595 2025.99 960.696 2023.61 964.579 2022.21C966.862 2021.38 969.09 2020.97 971.272 2020.97C975.392 2020.97 979.102 2022.16 982.403 2024.53C985.75 2026.86 988.123 2029.96 989.533 2033.85L998.553 2058.73ZM980.875 2040.47C980.875 2037.07 979.493 2034.43 976.729 2032.54C975.128 2031.42 973.282 2030.86 971.2 2030.86C967.808 2030.86 965.189 2032.22 963.343 2034.94C962.179 2036.64 961.597 2038.47 961.597 2040.47C961.597 2043.81 962.979 2046.43 965.743 2048.32C967.444 2049.49 969.263 2050.07 971.2 2050.07C973.864 2050.07 976.147 2049.15 978.038 2047.3C979.93 2045.41 980.875 2043.13 980.875 2040.47ZM1033.17 2047.59C1033.17 2049.92 1032.4 2052.03 1030.85 2053.92C1027.74 2057.71 1023.32 2059.53 1017.6 2059.38C1015.32 2059.34 1012.83 2058.83 1010.11 2057.85C1007.45 2056.88 1005.26 2055.67 1003.56 2054.22L1009.02 2047.16C1011.64 2049.63 1014.43 2050.87 1017.39 2050.87H1017.6C1018.81 2050.87 1019.91 2050.65 1020.88 2050.21C1022.14 2049.63 1022.77 2048.8 1022.77 2047.74V2047.45C1022.62 2046.33 1021.87 2045.53 1020.51 2045.05C1019.98 2044.95 1018.84 2044.73 1017.1 2044.39C1014.91 2043.96 1013.07 2043.42 1011.57 2042.79C1007.16 2040.9 1004.95 2037.58 1004.95 2032.83C1004.95 2028.27 1007.2 2024.85 1011.71 2022.57C1013.7 2021.55 1015.86 2021.01 1018.19 2020.97C1020.61 2020.92 1023.13 2021.33 1025.75 2022.21C1028.76 2023.22 1030.89 2024.56 1032.15 2026.21L1025.61 2032.1C1023.91 2030.4 1022.07 2029.55 1020.08 2029.55C1016.98 2029.55 1015.42 2030.57 1015.42 2032.61V2032.75C1015.42 2033.73 1016.69 2034.55 1019.21 2035.23C1019.4 2035.27 1021 2035.59 1024.01 2036.17C1030.12 2037.34 1033.17 2041.07 1033.17 2047.38V2047.59ZM1136.77 2058.73H1126.95L1126.88 2040.32C1126.88 2037.66 1125.93 2035.4 1124.04 2033.55C1122.2 2031.66 1119.95 2030.72 1117.27 2030.72C1113.69 2030.72 1110.94 2032.24 1109.05 2035.3L1109.12 2035.37V2058.73H1099.3L1099.23 2040.32C1099.23 2037.7 1098.28 2035.45 1096.39 2033.55C1094.5 2031.66 1092.25 2030.72 1089.63 2030.72C1086.96 2030.72 1084.68 2031.66 1082.79 2033.55C1080.9 2035.4 1079.95 2037.66 1079.95 2040.32V2058.73H1070.13V2040.32C1070.13 2034.89 1072.02 2030.31 1075.8 2026.57C1079.59 2022.79 1084.2 2020.9 1089.63 2020.9C1095.01 2020.9 1099.62 2022.83 1103.45 2026.72C1107.29 2022.83 1111.89 2020.9 1117.27 2020.9C1122.71 2020.9 1127.31 2022.79 1131.09 2026.57C1134.88 2030.31 1136.77 2034.89 1136.77 2040.32V2058.73ZM1180.74 2040.32C1180.74 2045.75 1178.85 2050.36 1175.06 2054.14C1171.33 2057.93 1166.75 2059.82 1161.31 2059.82C1155.84 2059.82 1151.2 2057.95 1147.42 2054.22C1143.69 2050.43 1141.82 2045.8 1141.82 2040.32C1141.82 2034.89 1143.71 2030.31 1147.49 2026.57C1151.27 2022.79 1155.88 2020.9 1161.31 2020.9C1166.75 2020.9 1171.33 2022.79 1175.06 2026.57C1178.85 2030.31 1180.74 2034.89 1180.74 2040.32ZM1170.92 2040.32C1170.92 2037.7 1169.97 2035.45 1168.08 2033.55C1166.19 2031.66 1163.93 2030.72 1161.31 2030.72C1158.65 2030.72 1156.37 2031.66 1154.47 2033.55C1152.58 2035.4 1151.64 2037.66 1151.64 2040.32C1151.64 2042.98 1152.58 2045.27 1154.47 2047.16C1156.37 2049.05 1158.65 2050 1161.31 2050C1163.99 2050 1166.24 2049.05 1168.08 2047.16C1169.97 2045.27 1170.92 2042.98 1170.92 2040.32ZM1219.33 2020.97L1201.36 2058.73L1183.17 2020.97H1194.81L1201.43 2036.46L1208.05 2020.97H1219.33ZM1260.66 2040.32C1260.66 2041.29 1260.59 2042.26 1260.44 2043.23H1232C1232.63 2045.27 1233.8 2046.91 1235.49 2048.18C1237.19 2049.39 1239.11 2050 1241.24 2050C1244.2 2050 1246.65 2048.86 1248.59 2046.58L1254.55 2054.51C1250.82 2058.04 1246.38 2059.82 1241.24 2059.82C1235.76 2059.82 1231.13 2057.95 1227.34 2054.22C1223.61 2050.43 1221.74 2045.8 1221.74 2040.32C1221.74 2034.89 1223.63 2030.31 1227.42 2026.57C1231.2 2022.79 1235.81 2020.9 1241.24 2020.9C1246.68 2020.9 1251.26 2022.79 1254.99 2026.57C1258.77 2030.31 1260.66 2034.89 1260.66 2040.32ZM1249.68 2035.88C1247.89 2032.44 1245.08 2030.72 1241.24 2030.72C1237.36 2030.72 1234.53 2032.44 1232.73 2035.88H1249.68ZM1276.48 2012.6C1276.48 2014.25 1275.93 2015.66 1274.81 2016.82C1273.69 2017.94 1272.31 2018.5 1270.66 2018.5C1269.02 2018.5 1267.61 2017.94 1266.45 2016.82C1265.33 2015.66 1264.77 2014.25 1264.77 2012.6C1264.77 2010.96 1265.33 2009.57 1266.45 2008.46C1267.61 2007.34 1269.02 2006.78 1270.66 2006.78C1272.27 2006.78 1273.62 2007.36 1274.74 2008.53C1275.9 2009.65 1276.48 2011 1276.48 2012.6ZM1275.61 2058.73H1265.79V2020.97H1275.61V2058.73ZM1310.18 2047.59C1310.18 2049.92 1309.4 2052.03 1307.85 2053.92C1304.75 2057.71 1300.33 2059.53 1294.61 2059.38C1292.33 2059.34 1289.83 2058.83 1287.12 2057.85C1284.45 2056.88 1282.27 2055.67 1280.57 2054.22L1286.02 2047.16C1288.64 2049.63 1291.44 2050.87 1294.39 2050.87H1294.61C1295.82 2050.87 1296.91 2050.65 1297.88 2050.21C1299.15 2049.63 1299.77 2048.8 1299.77 2047.74V2047.45C1299.63 2046.33 1298.87 2045.53 1297.52 2045.05C1296.98 2044.95 1295.85 2044.73 1294.1 2044.39C1291.92 2043.96 1290.07 2043.42 1288.57 2042.79C1284.16 2040.9 1281.95 2037.58 1281.95 2032.83C1281.95 2028.27 1284.21 2024.85 1288.72 2022.57C1290.71 2021.55 1292.86 2021.01 1295.19 2020.97C1297.62 2020.92 1300.14 2021.33 1302.76 2022.21C1305.77 2023.22 1307.89 2024.56 1309.16 2026.21L1302.61 2032.1C1300.91 2030.4 1299.07 2029.55 1297.08 2029.55C1293.98 2029.55 1292.43 2030.57 1292.43 2032.61V2032.75C1292.43 2033.73 1293.69 2034.55 1296.21 2035.23C1296.4 2035.27 1298 2035.59 1301.01 2036.17C1307.12 2037.34 1310.18 2041.07 1310.18 2047.38V2047.59ZM1386.06 2040.32C1386.06 2041.29 1385.98 2042.26 1385.84 2043.23H1357.39C1358.03 2045.27 1359.19 2046.91 1360.88 2048.18C1362.58 2049.39 1364.5 2050 1366.63 2050C1369.6 2050 1372.04 2048.86 1373.98 2046.58L1379.94 2054.51C1376.22 2058.04 1371.78 2059.82 1366.63 2059.82C1361.16 2059.82 1356.52 2057.95 1352.74 2054.22C1349.01 2050.43 1347.13 2045.8 1347.13 2040.32C1347.13 2034.89 1349.03 2030.31 1352.81 2026.57C1356.59 2022.79 1361.2 2020.9 1366.63 2020.9C1372.07 2020.9 1376.65 2022.79 1380.38 2026.57C1384.16 2030.31 1386.06 2034.89 1386.06 2040.32ZM1375.07 2035.88C1373.28 2032.44 1370.47 2030.72 1366.63 2030.72C1362.76 2030.72 1359.92 2032.44 1358.12 2035.88H1375.07ZM1462.01 2040.39C1462.01 2045.82 1460.11 2050.43 1456.33 2054.22C1452.59 2057.95 1448.01 2059.82 1442.58 2059.82C1439.09 2059.82 1435.86 2058.97 1432.91 2057.27V2079.6H1423.08V2040.39C1423.08 2034.91 1424.95 2030.31 1428.69 2026.57C1432.47 2022.83 1437.1 2020.97 1442.58 2020.97C1448.01 2020.97 1452.59 2022.86 1456.33 2026.64C1460.11 2030.38 1462.01 2034.96 1462.01 2040.39ZM1452.18 2040.39C1452.18 2037.73 1451.24 2035.47 1449.35 2033.63C1447.5 2031.74 1445.25 2030.79 1442.58 2030.79C1439.92 2030.79 1437.63 2031.74 1435.74 2033.63C1433.85 2035.47 1432.91 2037.73 1432.91 2040.39C1432.91 2043.06 1433.85 2045.34 1435.74 2047.23C1437.63 2049.08 1439.92 2050 1442.58 2050C1445.25 2050 1447.5 2049.08 1449.35 2047.23C1451.24 2045.34 1452.18 2043.06 1452.18 2040.39ZM1513.84 2058.73H1503.44L1501.33 2053.05C1497.44 2057.61 1492.5 2059.89 1486.49 2059.89C1481.06 2059.89 1476.45 2058 1472.66 2054.22C1468.93 2050.43 1467.06 2045.85 1467.06 2040.47C1467.06 2036.35 1468.23 2032.64 1470.55 2029.33C1472.88 2025.99 1475.98 2023.61 1479.87 2022.21C1482.15 2021.38 1484.38 2020.97 1486.56 2020.97C1490.68 2020.97 1494.39 2022.16 1497.69 2024.53C1501.04 2026.86 1503.41 2029.96 1504.82 2033.85L1513.84 2058.73ZM1496.16 2040.47C1496.16 2037.07 1494.78 2034.43 1492.02 2032.54C1490.41 2031.42 1488.57 2030.86 1486.49 2030.86C1483.09 2030.86 1480.48 2032.22 1478.63 2034.94C1477.47 2036.64 1476.88 2038.47 1476.88 2040.47C1476.88 2043.81 1478.27 2046.43 1481.03 2048.32C1482.73 2049.49 1484.55 2050.07 1486.49 2050.07C1489.15 2050.07 1491.43 2049.15 1493.32 2047.3C1495.22 2045.41 1496.16 2043.13 1496.16 2040.47ZM1538.42 2030.72C1535.76 2030.72 1533.47 2031.66 1531.58 2033.55C1529.69 2035.4 1528.74 2037.66 1528.74 2040.32V2058.73H1518.92V2040.32C1518.92 2034.89 1520.82 2030.31 1524.6 2026.57C1528.38 2022.79 1532.99 2020.9 1538.42 2020.9V2030.72ZM1590.15 2058.73H1579.74L1577.63 2053.05C1573.75 2057.61 1568.8 2059.89 1562.79 2059.89C1557.35 2059.89 1552.75 2058 1548.97 2054.22C1545.23 2050.43 1543.37 2045.85 1543.37 2040.47C1543.37 2036.35 1544.53 2032.64 1546.86 2029.33C1549.19 2025.99 1552.29 2023.61 1556.17 2022.21C1558.44 2021.38 1560.68 2020.97 1562.86 2020.97C1566.98 2020.97 1570.69 2022.16 1574 2024.53C1577.34 2026.86 1579.71 2029.96 1581.12 2033.85L1590.15 2058.73ZM1572.47 2040.47C1572.47 2037.07 1571.09 2034.43 1568.32 2032.54C1566.72 2031.42 1564.87 2030.86 1562.79 2030.86C1559.39 2030.86 1556.77 2032.22 1554.93 2034.94C1553.77 2036.64 1553.19 2038.47 1553.19 2040.47C1553.19 2043.81 1554.57 2046.43 1557.34 2048.32C1559.03 2049.49 1560.85 2050.07 1562.79 2050.07C1565.46 2050.07 1567.74 2049.15 1569.63 2047.3C1571.52 2045.41 1572.47 2043.13 1572.47 2040.47ZM1637.81 2012.6C1637.81 2014.25 1637.26 2015.66 1636.14 2016.82C1635.03 2017.94 1633.65 2018.5 1631.99 2018.5C1630.35 2018.5 1628.94 2017.94 1627.78 2016.82C1626.67 2015.66 1626.1 2014.25 1626.1 2012.6C1626.1 2010.96 1626.67 2009.57 1627.78 2008.46C1628.94 2007.34 1630.35 2006.78 1631.99 2006.78C1633.6 2006.78 1634.96 2007.36 1636.07 2008.53C1637.23 2009.65 1637.81 2011 1637.81 2012.6ZM1636.94 2058.73H1627.12V2020.97H1636.94V2058.73ZM1680.96 2058.73H1671.14L1671.07 2040.32C1671.07 2037.7 1670.12 2035.45 1668.23 2033.55C1666.34 2031.66 1664.09 2030.72 1661.47 2030.72C1658.8 2030.72 1656.52 2031.66 1654.63 2033.55C1652.74 2035.4 1651.79 2037.66 1651.79 2040.32V2058.73H1641.97V2040.32C1641.97 2034.89 1643.86 2030.31 1647.65 2026.57C1651.43 2022.79 1656.04 2020.9 1661.47 2020.9C1666.91 2020.9 1671.51 2022.79 1675.29 2026.57C1679.07 2030.31 1680.96 2034.89 1680.96 2040.32V2058.73ZM1705.52 2058.73C1700.09 2058.73 1695.48 2056.86 1691.7 2053.12C1687.91 2049.34 1686.02 2044.73 1686.02 2039.3V2001.11H1695.84V2020.97H1705.52V2029.33H1695.84V2039.3C1695.84 2041.97 1696.79 2044.25 1698.68 2046.14C1700.57 2047.99 1702.85 2048.9 1705.52 2048.9V2058.73ZM1749.39 2040.32C1749.39 2041.29 1749.31 2042.26 1749.17 2043.23H1720.72C1721.35 2045.27 1722.51 2046.91 1724.21 2048.18C1725.91 2049.39 1727.82 2050 1729.96 2050C1732.92 2050 1735.36 2048.86 1737.31 2046.58L1743.27 2054.51C1739.54 2058.04 1735.1 2059.82 1729.96 2059.82C1724.48 2059.82 1719.85 2057.95 1716.07 2054.22C1712.33 2050.43 1710.46 2045.8 1710.46 2040.32C1710.46 2034.89 1712.36 2030.31 1716.14 2026.57C1719.92 2022.79 1724.52 2020.9 1729.96 2020.9C1735.39 2020.9 1739.97 2022.79 1743.71 2026.57C1747.49 2030.31 1749.39 2034.89 1749.39 2040.32ZM1738.4 2035.88C1736.6 2032.44 1733.79 2030.72 1729.96 2030.72C1726.08 2030.72 1723.24 2032.44 1721.45 2035.88H1738.4ZM1774 2030.72C1771.34 2030.72 1769.06 2031.66 1767.16 2033.55C1765.27 2035.4 1764.33 2037.66 1764.33 2040.32V2058.73H1754.51V2040.32C1754.51 2034.89 1756.4 2030.31 1760.18 2026.57C1763.96 2022.79 1768.57 2020.9 1774 2020.9V2030.72ZM1817.87 2058.73H1808.05L1807.98 2040.32C1807.98 2037.7 1807.03 2035.45 1805.14 2033.55C1803.25 2031.66 1800.99 2030.72 1798.37 2030.72C1795.71 2030.72 1793.43 2031.66 1791.54 2033.55C1789.64 2035.4 1788.7 2037.66 1788.7 2040.32V2058.73H1778.88V2040.32C1778.88 2034.89 1780.77 2030.31 1784.55 2026.57C1788.33 2022.79 1792.94 2020.9 1798.37 2020.9C1803.8 2020.9 1808.41 2022.79 1812.2 2026.57C1815.98 2030.31 1817.87 2034.89 1817.87 2040.32V2058.73ZM1861.85 2040.32C1861.85 2041.29 1861.77 2042.26 1861.63 2043.23H1833.18C1833.81 2045.27 1834.98 2046.91 1836.68 2048.18C1838.37 2049.39 1840.29 2050 1842.42 2050C1845.38 2050 1847.83 2048.86 1849.77 2046.58L1855.74 2054.51C1852 2058.04 1847.56 2059.82 1842.42 2059.82C1836.94 2059.82 1832.31 2057.95 1828.53 2054.22C1824.79 2050.43 1822.93 2045.8 1822.93 2040.32C1822.93 2034.89 1824.82 2030.31 1828.6 2026.57C1832.38 2022.79 1836.99 2020.9 1842.42 2020.9C1847.85 2020.9 1852.44 2022.79 1856.17 2026.57C1859.96 2030.31 1861.85 2034.89 1861.85 2040.32ZM1850.86 2035.88C1849.06 2032.44 1846.25 2030.72 1842.42 2030.72C1838.54 2030.72 1835.7 2032.44 1833.91 2035.88H1850.86ZM1886.46 2058.73C1881.04 2058.73 1876.42 2056.86 1872.64 2053.12C1868.86 2049.34 1866.97 2044.73 1866.97 2039.3V2001.11H1876.79V2020.97H1886.46V2029.33H1876.79V2039.3C1876.79 2041.97 1877.73 2044.25 1879.63 2046.14C1881.52 2047.99 1883.8 2048.9 1886.46 2048.9V2058.73Z" fill="white"/>
<path d="M776.927 1696.8C776.927 1746.12 759.903 1787.81 725.857 1821.85C692.246 1855.46 650.779 1872.27 601.454 1872.27C553.003 1872.27 511.536 1854.81 477.052 1819.89C442.569 1854.81 401.102 1872.27 352.65 1872.27C303.326 1872.27 261.64 1855.46 227.593 1821.85C193.983 1787.81 177.178 1746.12 177.178 1696.8V1521.98H265.569V1696.8C265.569 1720.8 274.08 1741.32 291.104 1758.34C308.127 1775.36 328.643 1783.88 352.65 1783.88C376.658 1783.88 396.955 1775.36 413.542 1758.34C430.565 1741.32 439.077 1720.8 439.077 1696.8L439.732 1521.98H528.123V1741.97H527.468C544.491 1769.91 569.154 1783.88 601.454 1783.88C625.462 1783.88 645.759 1775.36 662.346 1758.34C679.369 1741.32 687.881 1720.8 687.881 1696.8L688.536 1521.98H776.927V1696.8ZM984.713 1861.79C935.825 1861.79 894.357 1844.99 860.31 1811.38C826.263 1777.33 809.24 1735.86 809.24 1686.97V1343.23H897.631V1521.98H984.713V1597.27H897.631V1686.97C897.631 1710.98 906.142 1731.5 923.167 1748.52C940.19 1765.11 960.706 1773.4 984.713 1773.4V1861.79ZM1615.84 1861.79H1527.45L1526.8 1696.14C1526.8 1672.13 1518.29 1651.84 1501.26 1635.25C1484.68 1618.23 1464.38 1609.71 1440.37 1609.71C1408.07 1609.71 1383.41 1623.46 1366.39 1650.96L1367.04 1651.62V1861.79H1278.65L1277.99 1696.14C1277.99 1672.57 1269.48 1652.27 1252.46 1635.25C1235.44 1618.23 1215.14 1609.71 1191.57 1609.71C1167.56 1609.71 1147.05 1618.23 1130.02 1635.25C1113 1651.84 1104.49 1672.13 1104.49 1696.14V1861.79H1016.1V1696.14C1016.1 1647.25 1033.12 1606 1067.17 1572.39C1101.21 1538.35 1142.68 1521.32 1191.57 1521.32C1240.02 1521.32 1281.49 1538.78 1315.97 1573.7C1350.45 1538.78 1391.92 1521.32 1440.37 1521.32C1489.26 1521.32 1530.73 1538.35 1564.77 1572.39C1598.82 1606 1615.84 1647.25 1615.84 1696.14V1861.79ZM1744.41 1446.68C1744.41 1461.52 1739.39 1474.18 1729.35 1484.66C1719.31 1494.7 1706.87 1499.72 1692.03 1499.72C1677.19 1499.72 1664.53 1494.7 1654.06 1484.66C1644.02 1474.18 1639 1461.52 1639 1446.68C1639 1431.84 1644.02 1419.4 1654.06 1409.36C1664.53 1399.32 1677.19 1394.3 1692.03 1394.3C1706.44 1394.3 1718.66 1399.54 1728.7 1410.02C1739.17 1420.06 1744.41 1432.28 1744.41 1446.68ZM1736.55 1861.79H1648.16V1521.98H1736.55V1861.79Z" fill="white"/>
<path d="M1633.06 1299.06C1633.06 1323.51 1624.55 1344.24 1607.53 1361.26C1590.72 1378.29 1570.1 1386.8 1545.65 1386.8C1520.99 1386.8 1500.15 1378.4 1483.12 1361.59C1466.32 1344.57 1457.92 1323.73 1457.92 1299.06C1457.92 1274.62 1466.43 1254 1483.45 1237.19C1500.47 1220.17 1521.21 1211.66 1545.65 1211.66C1570.1 1211.66 1590.72 1220.17 1607.53 1237.19C1624.55 1254 1633.06 1274.62 1633.06 1299.06ZM1588.87 1299.06C1588.87 1287.28 1584.61 1277.13 1576.1 1268.62C1567.59 1260.11 1557.44 1255.85 1545.65 1255.85C1533.65 1255.85 1523.39 1260.11 1514.88 1268.62C1506.37 1276.91 1502.11 1287.06 1502.11 1299.06C1502.11 1311.07 1506.37 1321.33 1514.88 1329.84C1523.39 1338.35 1533.65 1342.6 1545.65 1342.6C1557.66 1342.6 1567.8 1338.35 1576.1 1329.84C1584.61 1321.33 1588.87 1311.07 1588.87 1299.06Z" fill="white" fill-opacity="0.15"/>
</g>
<defs>
<clipPath id="clip0_45_10">
<rect width="1982.43" height="3419.24" fill="white" transform="translate(0 0.825745)"/>
</clipPath>
</defs>
</svg>
